<mxfile host="app.diagrams.net" agent="Mozilla/5.0 (Windows NT 10.0; Win64; x64) AppleWebKit/537.36 (KHTML, like Gecko) Chrome/129.0.0.0 Safari/537.36 Edg/129.0.0.0" version="24.7.17">
  <diagram name="Page-1" id="2YBvvXClWsGukQMizWep">
    <mxGraphModel dx="582" dy="323" grid="1" gridSize="10" guides="1" tooltips="1" connect="1" arrows="1" fold="1" page="1" pageScale="1" pageWidth="850" pageHeight="1100" math="0" shadow="0">
      <root>
        <mxCell id="0" />
        <mxCell id="1" parent="0" />
        <mxCell id="aM9ryv3xv72pqoxQDRHE-1" value="Tela de login" style="shape=umlLifeline;perimeter=lifelinePerimeter;whiteSpace=wrap;html=1;container=0;dropTarget=0;collapsible=0;recursiveResize=0;outlineConnect=0;portConstraint=eastwest;newEdgeStyle={&quot;edgeStyle&quot;:&quot;elbowEdgeStyle&quot;,&quot;elbow&quot;:&quot;vertical&quot;,&quot;curved&quot;:0,&quot;rounded&quot;:0};" parent="1" vertex="1">
          <mxGeometry x="170" y="50" width="100" height="300" as="geometry" />
        </mxCell>
        <mxCell id="aM9ryv3xv72pqoxQDRHE-5" value="Servidor de autenticação" style="shape=umlLifeline;perimeter=lifelinePerimeter;whiteSpace=wrap;html=1;container=0;dropTarget=0;collapsible=0;recursiveResize=0;outlineConnect=0;portConstraint=eastwest;newEdgeStyle={&quot;edgeStyle&quot;:&quot;elbowEdgeStyle&quot;,&quot;elbow&quot;:&quot;vertical&quot;,&quot;curved&quot;:0,&quot;rounded&quot;:0};" parent="1" vertex="1">
          <mxGeometry x="350" y="50" width="100" height="300" as="geometry" />
        </mxCell>
        <mxCell id="aM9ryv3xv72pqoxQDRHE-6" value="" style="html=1;points=[];perimeter=orthogonalPerimeter;outlineConnect=0;targetShapes=umlLifeline;portConstraint=eastwest;newEdgeStyle={&quot;edgeStyle&quot;:&quot;elbowEdgeStyle&quot;,&quot;elbow&quot;:&quot;vertical&quot;,&quot;curved&quot;:0,&quot;rounded&quot;:0};" parent="aM9ryv3xv72pqoxQDRHE-5" vertex="1">
          <mxGeometry x="45" y="90" width="10" height="160" as="geometry" />
        </mxCell>
        <mxCell id="aM9ryv3xv72pqoxQDRHE-7" value="&lt;font style=&quot;font-size: 8px;&quot;&gt;Envio os dados ao servidor()&lt;/font&gt;" style="html=1;verticalAlign=bottom;endArrow=block;edgeStyle=elbowEdgeStyle;elbow=vertical;curved=0;rounded=0;" parent="1" target="aM9ryv3xv72pqoxQDRHE-6" edge="1">
          <mxGeometry relative="1" as="geometry">
            <mxPoint x="225" y="140" as="sourcePoint" />
            <Array as="points">
              <mxPoint x="310" y="140" />
            </Array>
            <mxPoint x="380" y="140" as="targetPoint" />
          </mxGeometry>
        </mxCell>
        <mxCell id="aM9ryv3xv72pqoxQDRHE-8" value="&lt;font style=&quot;font-size: 8px;&quot;&gt;Dados válidos&lt;/font&gt;" style="html=1;verticalAlign=bottom;endArrow=open;dashed=1;endSize=8;edgeStyle=elbowEdgeStyle;elbow=vertical;curved=0;rounded=0;" parent="1" source="aM9ryv3xv72pqoxQDRHE-6" target="aM9ryv3xv72pqoxQDRHE-2" edge="1">
          <mxGeometry relative="1" as="geometry">
            <mxPoint x="325" y="215" as="targetPoint" />
            <Array as="points">
              <mxPoint x="310" y="240" />
              <mxPoint x="320" y="290" />
            </Array>
          </mxGeometry>
        </mxCell>
        <mxCell id="-dyiG2IOZTfxCsdY8TVE-1" value="Usuário" style="shape=umlActor;verticalLabelPosition=bottom;verticalAlign=top;html=1;outlineConnect=0;" parent="1" vertex="1">
          <mxGeometry x="40" y="20" width="30" height="60" as="geometry" />
        </mxCell>
        <mxCell id="aM9ryv3xv72pqoxQDRHE-2" value="" style="html=1;points=[];perimeter=orthogonalPerimeter;outlineConnect=0;targetShapes=umlLifeline;portConstraint=eastwest;newEdgeStyle={&quot;edgeStyle&quot;:&quot;elbowEdgeStyle&quot;,&quot;elbow&quot;:&quot;vertical&quot;,&quot;curved&quot;:0,&quot;rounded&quot;:0};" parent="1" vertex="1">
          <mxGeometry x="215" y="130" width="10" height="190" as="geometry" />
        </mxCell>
        <mxCell id="-dyiG2IOZTfxCsdY8TVE-7" value="" style="endArrow=none;dashed=1;html=1;rounded=0;" parent="1" source="-dyiG2IOZTfxCsdY8TVE-3" edge="1">
          <mxGeometry width="50" height="50" relative="1" as="geometry">
            <mxPoint x="55" y="340" as="sourcePoint" />
            <mxPoint x="54.71" y="100" as="targetPoint" />
          </mxGeometry>
        </mxCell>
        <mxCell id="-dyiG2IOZTfxCsdY8TVE-8" value="" style="endArrow=none;dashed=1;html=1;rounded=0;" parent="1" target="-dyiG2IOZTfxCsdY8TVE-3" edge="1">
          <mxGeometry width="50" height="50" relative="1" as="geometry">
            <mxPoint x="55" y="350" as="sourcePoint" />
            <mxPoint x="54.71" y="100" as="targetPoint" />
          </mxGeometry>
        </mxCell>
        <mxCell id="-dyiG2IOZTfxCsdY8TVE-3" value="" style="html=1;points=[];perimeter=orthogonalPerimeter;outlineConnect=0;targetShapes=umlLifeline;portConstraint=eastwest;newEdgeStyle={&quot;edgeStyle&quot;:&quot;elbowEdgeStyle&quot;,&quot;elbow&quot;:&quot;vertical&quot;,&quot;curved&quot;:0,&quot;rounded&quot;:0};" parent="1" vertex="1">
          <mxGeometry x="50" y="120" width="10" height="220" as="geometry" />
        </mxCell>
        <mxCell id="-dyiG2IOZTfxCsdY8TVE-9" value="" style="endArrow=block;html=1;rounded=0;endFill=1;" parent="1" edge="1">
          <mxGeometry width="50" height="50" relative="1" as="geometry">
            <mxPoint x="59.99999999999994" y="130" as="sourcePoint" />
            <mxPoint x="215" y="130" as="targetPoint" />
          </mxGeometry>
        </mxCell>
        <mxCell id="-dyiG2IOZTfxCsdY8TVE-10" value="&lt;font style=&quot;font-size: 8px;&quot;&gt;Informa os dados de login()&lt;/font&gt;" style="text;html=1;align=center;verticalAlign=middle;whiteSpace=wrap;rounded=0;" parent="1" vertex="1">
          <mxGeometry x="90" y="110" width="100" height="20" as="geometry" />
        </mxCell>
        <mxCell id="-dyiG2IOZTfxCsdY8TVE-11" value="Banco de dados" style="shape=umlLifeline;perimeter=lifelinePerimeter;whiteSpace=wrap;html=1;container=0;dropTarget=0;collapsible=0;recursiveResize=0;outlineConnect=0;portConstraint=eastwest;newEdgeStyle={&quot;edgeStyle&quot;:&quot;elbowEdgeStyle&quot;,&quot;elbow&quot;:&quot;vertical&quot;,&quot;curved&quot;:0,&quot;rounded&quot;:0};" parent="1" vertex="1">
          <mxGeometry x="530" y="50" width="100" height="300" as="geometry" />
        </mxCell>
        <mxCell id="-dyiG2IOZTfxCsdY8TVE-12" value="" style="html=1;points=[];perimeter=orthogonalPerimeter;outlineConnect=0;targetShapes=umlLifeline;portConstraint=eastwest;newEdgeStyle={&quot;edgeStyle&quot;:&quot;elbowEdgeStyle&quot;,&quot;elbow&quot;:&quot;vertical&quot;,&quot;curved&quot;:0,&quot;rounded&quot;:0};" parent="-dyiG2IOZTfxCsdY8TVE-11" vertex="1">
          <mxGeometry x="45" y="100" width="10" height="130" as="geometry" />
        </mxCell>
        <mxCell id="-dyiG2IOZTfxCsdY8TVE-13" value="&lt;font style=&quot;font-size: 8px;&quot;&gt;Consulta os dados()&lt;/font&gt;" style="html=1;verticalAlign=bottom;endArrow=block;edgeStyle=elbowEdgeStyle;elbow=vertical;curved=0;rounded=0;" parent="1" target="-dyiG2IOZTfxCsdY8TVE-12" edge="1">
          <mxGeometry relative="1" as="geometry">
            <mxPoint x="405" y="150" as="sourcePoint" />
            <Array as="points">
              <mxPoint x="495" y="150" />
            </Array>
            <mxPoint x="580" y="150" as="targetPoint" />
          </mxGeometry>
        </mxCell>
        <mxCell id="-dyiG2IOZTfxCsdY8TVE-14" value="" style="html=1;verticalAlign=bottom;endArrow=open;dashed=1;endSize=8;edgeStyle=elbowEdgeStyle;elbow=vertical;curved=0;rounded=0;" parent="1" source="-dyiG2IOZTfxCsdY8TVE-12" target="aM9ryv3xv72pqoxQDRHE-6" edge="1">
          <mxGeometry relative="1" as="geometry">
            <mxPoint x="425" y="180" as="targetPoint" />
            <Array as="points">
              <mxPoint x="520" y="180" />
            </Array>
            <mxPoint x="600" y="180" as="sourcePoint" />
          </mxGeometry>
        </mxCell>
        <mxCell id="-dyiG2IOZTfxCsdY8TVE-26" value="" style="endArrow=classic;html=1;rounded=0;fontSize=8;" parent="1" target="aM9ryv3xv72pqoxQDRHE-2" edge="1">
          <mxGeometry width="50" height="50" relative="1" as="geometry">
            <mxPoint x="225" y="260" as="sourcePoint" />
            <mxPoint x="225" y="290" as="targetPoint" />
            <Array as="points">
              <mxPoint x="280" y="260" />
              <mxPoint x="280" y="280" />
            </Array>
          </mxGeometry>
        </mxCell>
        <mxCell id="-dyiG2IOZTfxCsdY8TVE-27" value="&lt;font style=&quot;font-size: 8px;&quot;&gt;Libera acesso ao sistema()&lt;/font&gt;" style="edgeLabel;html=1;align=left;verticalAlign=middle;resizable=0;points=[];" parent="-dyiG2IOZTfxCsdY8TVE-26" vertex="1" connectable="0">
          <mxGeometry x="-0.0896" y="-1" relative="1" as="geometry">
            <mxPoint y="6" as="offset" />
          </mxGeometry>
        </mxCell>
        <mxCell id="-dyiG2IOZTfxCsdY8TVE-29" value="&lt;font style=&quot;font-size: 8px;&quot;&gt;Dados inválidos&lt;/font&gt;" style="html=1;verticalAlign=bottom;endArrow=open;dashed=1;endSize=8;edgeStyle=elbowEdgeStyle;elbow=vertical;curved=0;rounded=0;" parent="1" edge="1">
          <mxGeometry relative="1" as="geometry">
            <mxPoint x="225" y="300" as="targetPoint" />
            <Array as="points">
              <mxPoint x="310" y="300" />
              <mxPoint x="320" y="350" />
            </Array>
            <mxPoint x="395" y="300" as="sourcePoint" />
          </mxGeometry>
        </mxCell>
        <mxCell id="-dyiG2IOZTfxCsdY8TVE-30" value="&lt;font style=&quot;font-size: 8px;&quot;&gt;Exibe mensagem de dados inválidos&lt;/font&gt;" style="html=1;verticalAlign=bottom;endArrow=open;dashed=1;endSize=8;edgeStyle=elbowEdgeStyle;elbow=vertical;curved=0;rounded=0;" parent="1" edge="1">
          <mxGeometry relative="1" as="geometry">
            <mxPoint x="60" y="319" as="targetPoint" />
            <Array as="points">
              <mxPoint x="130" y="319.39" />
              <mxPoint x="140" y="369.39" />
            </Array>
            <mxPoint x="215" y="319.39" as="sourcePoint" />
          </mxGeometry>
        </mxCell>
        <mxCell id="-dyiG2IOZTfxCsdY8TVE-15" value="" style="html=1;verticalAlign=bottom;endArrow=block;edgeStyle=elbowEdgeStyle;elbow=vertical;curved=0;rounded=0;" parent="1" source="aM9ryv3xv72pqoxQDRHE-6" target="aM9ryv3xv72pqoxQDRHE-6" edge="1">
          <mxGeometry relative="1" as="geometry">
            <mxPoint x="410" y="214.70999999999998" as="sourcePoint" />
            <Array as="points">
              <mxPoint x="460" y="230" />
            </Array>
            <mxPoint x="580" y="214.70999999999998" as="targetPoint" />
          </mxGeometry>
        </mxCell>
        <mxCell id="-dyiG2IOZTfxCsdY8TVE-28" value="&lt;span style=&quot;font-size: 8px; background-color: rgb(251, 251, 251);&quot;&gt;Valida os dados()&lt;/span&gt;" style="edgeLabel;html=1;align=left;verticalAlign=middle;resizable=0;points=[];" parent="-dyiG2IOZTfxCsdY8TVE-15" vertex="1" connectable="0">
          <mxGeometry x="-0.127" relative="1" as="geometry">
            <mxPoint y="9" as="offset" />
          </mxGeometry>
        </mxCell>
      </root>
    </mxGraphModel>
  </diagram>
</mxfile>
